<svg width="459" height="77" viewBox="0 0 459 77" fill="none" xmlns="http://www.w3.org/2000/svg">
<path d="M74.6243 50.8255C73.3933 50.2383 72.3419 49.3309 71.5794 48.1979C71.1257 47.2583 70.504 46.4101 69.745 45.6955C68.9804 45.2571 68.1275 44.9963 67.2491 44.9322C64.8514 44.4452 62.5037 43.7373 60.2358 42.8176C58.4412 42.2763 56.7528 41.4298 55.2441 40.3152C52.274 37.8127 51.388 33.5585 49.9155 29.8924C45.6476 19.4196 34.541 12.5379 23.5593 14.5774C21.1393 14.9985 18.8463 15.9652 16.8532 17.4044C14.8601 18.8436 13.2189 20.7177 12.0535 22.8855C9.88364 21.7065 7.54864 20.8628 5.12749 20.3831C4.30617 20.1558 3.43511 20.1864 2.63164 20.4707C1.9813 20.8797 1.47811 21.4862 1.19531 22.2018C0.912506 22.9175 0.864845 23.7049 1.05926 24.4496C1.29701 25.6533 1.82028 26.782 2.58485 27.7403C3.34942 28.6985 4.33283 29.4582 5.45195 29.955C7.6483 30.9935 9.85712 30.8684 12.1907 30.9309C12.6899 34.6846 9.30803 40.3402 8.13499 43.8812C7.60915 45.2286 7.2772 46.6441 7.14913 48.0853C6.9869 52.5772 11.442 56.5061 15.6475 55.6552C16.7011 60.5663 17.1661 65.5859 17.0327 70.6074C18.2806 70.7951 18.9545 69.2686 19.1417 68.0174C19.721 64.1256 19.1029 60.1491 17.3696 56.6187C17.02 56.077 16.8577 55.4351 16.9079 54.7919C16.9913 54.5205 17.1297 54.2694 17.3144 54.0541C17.499 53.8388 17.726 53.664 17.9811 53.5407C19.0349 52.9884 20.2552 52.8464 21.4071 53.1421C22.5591 53.4378 23.5612 54.1502 24.2207 55.1422C24.1712 54.5805 24.0097 54.0345 23.746 53.5364C23.4822 53.0384 23.1215 52.5984 22.6852 52.2426C22.2489 51.8868 21.7458 51.6223 21.2057 51.4649C20.6657 51.3074 20.0996 51.2602 19.541 51.326C17.8813 51.6263 16.5834 52.9651 15.061 53.7158C13.5385 54.4666 11.2174 54.2664 10.7431 52.5897C12.4603 53.0721 14.292 52.9327 15.9168 52.196C17.5416 51.4592 18.8557 50.1722 19.6284 48.5608C17.6529 50.1111 15.2349 50.9879 12.7273 51.0632C12.2301 51.1258 11.7252 51.0687 11.2543 50.8969C10.7834 50.725 10.3601 50.4432 10.0194 50.0748C9.62143 49.4273 9.44609 48.667 9.52018 47.9101C9.75103 44.8936 10.4718 41.9351 11.6541 39.1515L14.7864 30.5931C14.9648 29.9452 15.2941 29.3491 15.7473 28.8539C16.7581 27.9155 18.2432 28.2158 19.6533 28.416C22.3256 28.8024 25.0508 28.5625 27.6151 27.7153C25.1192 27.7153 22.6234 26.7018 20.1275 26.2638C17.6317 25.8259 14.6242 26.3014 13.1017 28.3534C12.8888 28.7346 12.5896 29.0603 12.2282 29.3043C11.8972 29.4271 11.5392 29.4574 11.1924 29.3919C9.52519 29.2933 7.9009 28.8231 6.43781 28.0156C5.6998 27.5913 5.07355 26.9963 4.6112 26.2803C4.14886 25.5643 3.86379 24.7478 3.77973 23.899C3.7488 23.5557 3.80908 23.2104 3.95444 22.898C4.18444 22.5489 4.52487 22.2875 4.92099 22.1559C5.31711 22.0242 5.74587 22.03 6.13831 22.1723C6.93698 22.385 7.6483 22.873 8.44697 23.1107C11.155 23.924 13.7132 21.6969 16.0718 20.0828C20.4539 17.0917 25.8187 15.9128 31.0469 16.792C36.3478 17.7458 41.0822 20.7014 44.2748 25.0502C46.596 28.2033 48.0186 31.9319 49.8531 35.4103C51.6875 38.8888 54.071 42.2671 57.5278 43.9562C61.4088 45.8331 66.2633 45.3576 69.695 48.0102C66.6551 50.2351 63.1943 51.8147 59.5245 52.6523C57.2533 53.1528 54.8572 53.3905 52.8231 54.5667C51.0699 55.7227 49.5709 57.2257 48.418 58.9835C45.7937 62.5193 43.4488 66.2552 41.4046 70.157C42.8897 70.67 44.2499 69.1936 45.1484 67.8798L49.1792 62.0991C50.4644 59.9505 52.2073 58.1133 54.2832 56.7188C55.7456 55.9962 57.2867 55.4461 58.8756 55.0797C62.9901 53.8578 66.8121 51.8055 70.1069 49.0487C70.9077 49.9867 71.94 50.6976 73.1006 51.1104C74.2612 51.5231 75.5095 51.6234 76.7209 51.4011C75.9965 51.3192 75.2892 51.125 74.6243 50.8255V50.8255Z" fill="#250000"/>
<path d="M41.8167 26.8645C41.6633 26.1195 41.362 25.4131 40.9307 24.7874C39.8075 23.0357 37.1869 21.6718 35.1777 22.4226C34.0671 22.8355 32.2077 24.6373 32.1577 25.9385V26.5642L32.6819 26.2639L33.4182 25.8134C33.9797 25.4756 34.5538 25.1252 35.1403 24.8249C35.7672 24.4732 36.5047 24.3757 37.2011 24.5526C37.8975 24.7295 38.4998 25.1673 38.8841 25.7759C40.0197 27.4525 39.6703 28.2783 38.7967 28.929C38.4227 29.2186 38.0001 29.439 37.5488 29.5796C36.9123 29.7673 36.3009 29.9049 35.5646 30.0551L34.5912 30.2553L34.0796 30.3804C34.0364 30.179 33.9444 29.9914 33.8116 29.8343C33.6788 29.6771 33.5094 29.5553 33.3183 29.4795C32.2841 28.9483 31.1964 28.5288 30.0737 28.2283C28.2767 27.8279 27.4156 28.2283 26.4048 30.005C26.0304 30.6557 25.6685 31.3188 25.2942 32.0195C25.2404 32.1172 25.2025 32.2227 25.1819 32.3323L24.9073 33.2582C24.9073 33.1331 25.5063 32.9204 25.6186 32.8453C26.1656 32.5557 26.7378 32.3169 27.3283 32.1321C27.9772 31.9194 28.5762 32.2072 29.2002 32.1321C29.8241 32.0571 30.6228 32.1321 31.3216 32.007C31.9233 31.9462 32.5014 31.7401 33.0063 31.4064C33.4306 31.1562 34.0172 30.9935 34.0671 30.6432L34.7035 31.0185C34.8134 31.0927 34.9305 31.1556 35.0529 31.2062C35.5835 31.4063 36.1459 31.508 36.7127 31.5065C37.6129 31.4784 38.5006 31.2876 39.3333 30.9435C41.4173 30.1427 42.1786 28.954 41.8167 26.8645ZM30.1236 30.931C29.899 31.006 28.9506 30.8434 28.7135 30.931C28.4775 31.0125 28.2355 31.0753 27.9897 31.1186C28.0833 31.0555 28.1535 30.9631 28.1894 30.8559C28.2243 30.7449 28.2535 30.6321 28.2767 30.518C28.3641 30.2177 28.5513 29.6797 28.9007 29.6297C29.2312 29.5431 29.5701 29.4927 29.9115 29.4795C30.0737 29.5421 30.5729 30.005 30.7226 30.0926C31.2592 30.4054 30.4731 30.8058 30.1236 30.931Z" fill="#250000"/>
<path d="M35.6769 34.8848C35.6769 34.7097 35.5771 34.547 35.5396 34.3718L35.4523 34.0465L34.6536 34.2217V34.5345C34.8802 36.874 34.7072 39.2352 34.1419 41.5164C33.7865 43.8889 32.5686 46.0458 30.7226 47.5723C30.1412 47.9771 29.5324 48.3408 28.9007 48.6609C28.5388 48.8611 28.1644 49.0613 27.815 49.274L27.6527 49.3616C27.3032 49.5187 26.9898 49.7465 26.7321 50.0307C26.4744 50.3149 26.278 50.6494 26.1552 51.0132L25.9306 51.7514L26.617 51.4511L28.0521 50.8005C29.0629 50.3375 30.0113 49.9121 30.9722 49.5493C31.8174 49.1925 32.5785 48.6617 33.2062 47.9914C33.8339 47.3211 34.3142 46.5261 34.6162 45.6579C35.8784 42.6453 36.3344 39.3545 35.939 36.111C35.9032 35.6929 35.8152 35.2809 35.6769 34.8848V34.8848Z" fill="#250000"/>
<path d="M14.0878 44.3817L13.9381 44.4818L13.651 44.657C13.4202 44.7912 13.1992 44.9417 12.9896 45.1074C12.2284 45.758 11.5795 46.3211 10.9805 46.9217C10.862 47.0263 10.7714 47.1588 10.7169 47.3074C10.6624 47.456 10.6458 47.6159 10.6685 47.7725C10.7012 47.9339 10.7745 48.0842 10.8816 48.209C10.9886 48.3339 11.1258 48.4291 11.28 48.4857C11.5724 48.6089 11.8863 48.6727 12.2035 48.6734C12.8567 48.6563 13.487 48.4281 14.0005 48.0228C14.4425 47.7116 14.7998 47.2944 15.0396 46.8091C15.2794 46.3239 15.3941 45.7862 15.3732 45.245V44.5318L14.6369 45.195L14.7742 44.657L14.0878 44.3817Z" fill="#250000"/>
<path d="M77.0081 27.3274C74.9817 22.013 71.909 17.162 67.9732 13.0634C63.987 8.97062 59.2326 5.70902 53.9839 3.46644C48.7266 1.39321 43.1092 0.393527 37.4614 0.52605C31.7208 0.546841 26.0354 1.65044 20.7018 3.77925C11.8166 7.3953 3.55534 19.5072 3.55534 19.5072L3.95468 19.0818C4.27914 18.744 4.64104 18.3436 5.02789 17.9056C6.01375 16.8171 7.1244 15.5783 8.19762 14.6149C16.1102 7.41256 26.5054 3.57638 37.1869 3.91688C47.6345 4.16348 57.5667 8.51809 64.8409 16.0413C74.6246 26.3014 78.5431 41.8667 73.8634 55.4801C73.0431 57.8608 71.9633 60.1435 70.6437 62.2868C69.4262 64.2288 68.0663 66.0773 66.5755 67.8172L62.8317 72.3967C65.6098 70.1547 68.2479 67.7436 70.7311 65.1771C75.0221 59.9883 77.8638 53.7512 78.9665 47.102C80.0692 40.4528 79.3935 33.6293 77.0081 27.3274Z" fill="#679436"/>
<path d="M105.96 29.8271L106.038 29.4111L108.196 28.3711L110.692 14.1231L108.898 13.0831L108.976 12.6671H115.164L115.06 13.0831L112.928 14.1231L110.406 28.3711L112.226 29.4111L112.122 29.8271H105.96ZM118.18 29.8271L111.732 21.0391L119.818 13.9671L118.206 13.0831L118.284 12.6671H123.484L123.38 13.0831L121.794 13.7071L113.968 20.5191L120.052 28.4751L121.638 29.4111L121.56 29.8271H118.18ZM128.674 30.3471L128.752 29.9311L130.728 28.8911L130.936 27.7471C128.388 27.6951 126.472 27.1751 125.19 26.1871C123.907 25.1818 123.266 23.8038 123.266 22.0531C123.266 20.7705 123.664 19.5918 124.462 18.5171C125.259 17.4251 126.403 16.5411 127.894 15.8651C129.384 15.1718 131.152 14.7991 133.198 14.7471L133.406 13.6031L131.534 12.5631L131.612 12.1471H137.8L137.722 12.5631L135.616 13.6031L135.408 14.7471C137.956 14.7991 139.871 15.3278 141.154 16.3331C142.436 17.3211 143.078 18.6905 143.078 20.4411C143.078 21.7238 142.679 22.9111 141.882 24.0031C141.084 25.0778 139.94 25.9618 138.45 26.6551C136.959 27.3311 135.191 27.6951 133.146 27.7471L132.938 28.8911L134.94 29.9311L134.862 30.3471H128.674ZM140.738 20.7011C140.738 19.2278 140.261 18.0751 139.308 17.2431C138.354 16.3938 136.994 15.9258 135.226 15.8391L133.328 26.6291C135.009 26.6291 136.396 26.3605 137.488 25.8231C138.597 25.2685 139.412 24.5491 139.932 23.6651C140.469 22.7638 140.738 21.7758 140.738 20.7011ZM125.606 21.7931C125.606 23.2665 126.082 24.4278 127.036 25.2771C127.989 26.1091 129.35 26.5685 131.118 26.6551L133.016 15.8651C131.334 15.8651 129.939 16.1425 128.83 16.6971C127.738 17.2345 126.923 17.9538 126.386 18.8551C125.866 19.7391 125.606 20.7185 125.606 21.7931ZM142.425 29.8271L142.529 29.4111L144.427 28.5011L151.239 21.0911L147.339 13.9411L145.935 13.0831L146.013 12.6671H152.175L152.097 13.0831L149.679 13.9411L149.653 14.0711L152.903 19.8951L158.103 14.0711V13.9671L156.309 13.0831L156.387 12.6671H161.717L161.639 13.0831L160.053 13.9151L153.527 21.0131L157.687 28.4491L159.247 29.4111L159.169 29.8271H152.877L152.955 29.4111L155.217 28.5271L155.243 28.4231L151.863 22.2351L146.299 28.4231V28.5271L148.249 29.4111L148.171 29.8271H142.425Z" fill="#05668D"/>
<path d="M111.52 59.8271C109.42 59.6671 107.78 59.0171 106.6 57.8771C105.44 56.7371 104.86 55.1371 104.86 53.0771C104.86 51.3971 105.2 49.8671 105.88 48.4871C106.56 47.1071 107.64 45.9971 109.12 45.1571C110.6 44.2971 112.54 43.8271 114.94 43.7471L115.48 41.1071H118.21L117.67 43.7471C119.73 43.8671 121.35 44.4971 122.53 45.6371C123.71 46.7571 124.3 48.3271 124.3 50.3471C124.3 51.4471 124.12 52.5471 123.76 53.6471C123.42 54.7271 122.86 55.7271 122.08 56.6471C121.3 57.5471 120.27 58.2871 118.99 58.8671C117.71 59.4471 116.13 59.7671 114.25 59.8271L113.53 63.1271H110.8L111.52 59.8271ZM114.43 46.0571C112.83 46.0571 111.52 46.3771 110.5 47.0171C109.5 47.6571 108.76 48.4971 108.28 49.5371C107.82 50.5771 107.59 51.7071 107.59 52.9271C107.59 54.3471 107.97 55.4671 108.73 56.2871C109.51 57.0871 110.59 57.5071 111.97 57.5471L114.43 46.0571ZM114.73 57.5471C116.33 57.4471 117.63 57.0771 118.63 56.4371C119.63 55.7771 120.37 54.9371 120.85 53.9171C121.33 52.8771 121.57 51.7371 121.57 50.4971C121.57 49.1971 121.2 48.1471 120.46 47.3471C119.74 46.5471 118.64 46.1171 117.16 46.0571L114.73 57.5471ZM126.459 62.8271L130.989 41.4071H141.849L141.339 43.7771H133.149L131.739 50.4671H139.389L138.939 52.8071H131.259L129.609 60.4571H137.829L137.319 62.8271H126.459ZM141.869 62.8271L146.399 41.4071H151.229C153.549 41.4071 155.199 41.9271 156.179 42.9671C157.159 43.9871 157.649 45.3271 157.649 46.9871C157.649 49.4071 156.849 51.2571 155.249 52.5371C153.649 53.8171 151.309 54.4571 148.229 54.4571H146.309L144.539 62.8271H141.869ZM148.649 52.2071C150.569 52.2071 152.089 51.7971 153.209 50.9771C154.349 50.1371 154.919 48.8371 154.919 47.0771C154.919 45.8971 154.579 45.0471 153.899 44.5271C153.239 43.9871 152.229 43.7171 150.869 43.7171H148.589L146.789 52.2071H148.649ZM158.86 62.8271L163.39 41.4071H167.17L169.24 58.8971H169.36L178.87 41.4071H182.98L178.54 62.8271H175.84L178.54 50.1071C178.82 48.8071 179.08 47.6271 179.32 46.5671C179.58 45.5071 179.8 44.6571 179.98 44.0171H179.92L169.6 62.8271H167.47L165.19 44.0471H165.07C165.03 44.4471 164.96 44.9871 164.86 45.6671C164.76 46.3271 164.64 47.0371 164.5 47.7971C164.38 48.5371 164.25 49.2571 164.11 49.9571L161.38 62.8271H158.86ZM184.115 62.8271L188.645 41.4071H199.505L198.995 43.7771H190.805L189.395 50.4671H197.045L196.595 52.8071H188.915L187.265 60.4571H195.485L194.975 62.8271H184.115ZM199.525 62.8271L204.055 41.4071H208.885C211.205 41.4071 212.855 41.9271 213.835 42.9671C214.815 43.9871 215.305 45.3271 215.305 46.9871C215.305 49.4071 214.505 51.2571 212.905 52.5371C211.305 53.8171 208.965 54.4571 205.885 54.4571H203.965L202.195 62.8271H199.525ZM206.305 52.2071C208.225 52.2071 209.745 51.7971 210.865 50.9771C212.005 50.1371 212.575 48.8371 212.575 47.0771C212.575 45.8971 212.235 45.0471 211.555 44.5271C210.895 43.9871 209.885 43.7171 208.525 43.7171H206.245L204.445 52.2071H206.305ZM225.097 63.1271C222.717 63.1271 220.847 62.3971 219.487 60.9371C218.147 59.4771 217.477 57.4771 217.477 54.9371C217.477 53.6571 217.627 52.3571 217.927 51.0371C218.227 49.7171 218.677 48.4671 219.277 47.2871C219.897 46.1071 220.667 45.0571 221.587 44.1371C222.527 43.1971 223.617 42.4571 224.857 41.9171C226.097 41.3771 227.497 41.1071 229.057 41.1071C231.057 41.1071 232.797 41.5071 234.277 42.3071L233.197 44.5271C232.657 44.2471 232.047 44.0071 231.367 43.8071C230.707 43.5871 229.937 43.4771 229.057 43.4771C227.557 43.4771 226.257 43.8171 225.157 44.4971C224.077 45.1571 223.177 46.0471 222.457 47.1671C221.737 48.2671 221.197 49.4871 220.837 50.8271C220.497 52.1671 220.327 53.5171 220.327 54.8771C220.327 56.6971 220.787 58.1371 221.707 59.1971C222.647 60.2371 223.937 60.7571 225.577 60.7571C226.397 60.7571 227.197 60.6771 227.977 60.5171C228.777 60.3571 229.557 60.1471 230.317 59.8871V62.2271C229.537 62.5071 228.747 62.7271 227.947 62.8871C227.167 63.0471 226.217 63.1271 225.097 63.1271ZM234.154 62.8271L238.684 41.4071H241.354L239.134 51.8171L249.244 41.4071H252.484L241.894 52.1171L248.584 62.8271H245.524L239.044 52.2071L236.824 62.8271H234.154ZM259.294 63.1271C256.734 63.1271 254.764 62.3871 253.384 60.9071C252.024 59.4071 251.344 57.3771 251.344 54.8171C251.344 52.9771 251.584 51.2271 252.064 49.5671C252.564 47.9071 253.284 46.4471 254.224 45.1871C255.164 43.9071 256.304 42.9071 257.644 42.1871C258.984 41.4471 260.494 41.0771 262.174 41.0771C264.614 41.0771 266.504 41.8271 267.844 43.3271C269.204 44.8271 269.884 46.8871 269.884 49.5071C269.884 51.3671 269.654 53.1171 269.194 54.7571C268.754 56.3971 268.084 57.8471 267.184 59.1071C266.304 60.3471 265.204 61.3271 263.884 62.0471C262.564 62.7671 261.034 63.1271 259.294 63.1271ZM259.384 60.7571C260.584 60.7571 261.654 60.4571 262.594 59.8571C263.534 59.2571 264.334 58.4371 264.994 57.3971C265.654 56.3371 266.154 55.1271 266.494 53.7671C266.854 52.4071 267.034 50.9671 267.034 49.4471C267.034 47.5471 266.584 46.0771 265.684 45.0371C264.784 43.9771 263.554 43.4471 261.994 43.4471C260.794 43.4471 259.714 43.7471 258.754 44.3471C257.794 44.9271 256.974 45.7371 256.294 46.7771C255.614 47.7971 255.094 48.9971 254.734 50.3771C254.374 51.7371 254.194 53.1971 254.194 54.7571C254.194 56.6371 254.654 58.1071 255.574 59.1671C256.494 60.2271 257.764 60.7571 259.384 60.7571ZM272.035 62.8271L276.565 41.4071H287.425L286.915 43.7771H278.725L277.315 50.4671H284.965L284.515 52.8071H276.835L275.185 60.4571H283.405L282.895 62.8271H272.035ZM292.448 62.8271L301.178 51.4871L297.368 41.4071H300.068L302.978 49.5971L309.338 41.4071H312.278L304.178 51.6071L308.228 62.8271H305.408L302.348 53.5571L295.388 62.8271H292.448ZM319.353 63.1271C316.793 63.1271 314.823 62.3871 313.443 60.9071C312.083 59.4071 311.403 57.3771 311.403 54.8171C311.403 52.9771 311.643 51.2271 312.123 49.5671C312.623 47.9071 313.343 46.4471 314.283 45.1871C315.223 43.9071 316.363 42.9071 317.703 42.1871C319.043 41.4471 320.553 41.0771 322.233 41.0771C324.673 41.0771 326.563 41.8271 327.903 43.3271C329.263 44.8271 329.943 46.8871 329.943 49.5071C329.943 51.3671 329.713 53.1171 329.253 54.7571C328.813 56.3971 328.143 57.8471 327.243 59.1071C326.363 60.3471 325.263 61.3271 323.943 62.0471C322.623 62.7671 321.093 63.1271 319.353 63.1271ZM319.443 60.7571C320.643 60.7571 321.713 60.4571 322.653 59.8571C323.593 59.2571 324.393 58.4371 325.053 57.3971C325.713 56.3371 326.213 55.1271 326.553 53.7671C326.913 52.4071 327.093 50.9671 327.093 49.4471C327.093 47.5471 326.643 46.0771 325.743 45.0371C324.843 43.9771 323.613 43.4471 322.053 43.4471C320.853 43.4471 319.773 43.7471 318.813 44.3471C317.853 44.9271 317.033 45.7371 316.353 46.7771C315.673 47.7971 315.153 48.9971 314.793 50.3771C314.433 51.7371 314.253 53.1971 314.253 54.7571C314.253 56.6371 314.713 58.1071 315.633 59.1671C316.553 60.2271 317.823 60.7571 319.443 60.7571ZM336.331 63.1271C334.051 63.1271 332.121 62.7371 330.541 61.9571V59.4071C331.261 59.8271 332.151 60.1871 333.211 60.4871C334.291 60.7671 335.381 60.9071 336.481 60.9071C337.801 60.9071 338.881 60.6971 339.721 60.2771C340.561 59.8571 341.171 59.3071 341.551 58.6271C341.951 57.9471 342.151 57.2071 342.151 56.4071C342.151 55.1671 341.741 54.2671 340.921 53.7071C340.101 53.1471 338.941 52.8671 337.441 52.8671H334.381L334.831 50.6771H337.681C338.661 50.6771 339.591 50.5371 340.471 50.2571C341.371 49.9571 342.111 49.4871 342.691 48.8471C343.271 48.2071 343.561 47.3371 343.561 46.2371C343.561 45.2371 343.261 44.5071 342.661 44.0471C342.061 43.5671 341.261 43.3271 340.261 43.3271C339.361 43.3271 338.471 43.4871 337.591 43.8071C336.731 44.1271 335.891 44.5471 335.071 45.0671L333.991 43.1471C335.011 42.4671 336.051 41.9571 337.111 41.6171C338.191 41.2771 339.421 41.1071 340.801 41.1071C342.521 41.1071 343.871 41.5471 344.851 42.4271C345.831 43.2871 346.321 44.4371 346.321 45.8771C346.321 47.3971 345.831 48.6771 344.851 49.7171C343.871 50.7371 342.521 51.4171 340.801 51.7571V51.8171C342.001 51.9971 342.991 52.4771 343.771 53.2571C344.571 54.0371 344.971 55.1271 344.971 56.5271C344.971 57.7271 344.651 58.8271 344.011 59.8271C343.371 60.8271 342.411 61.6271 341.131 62.2271C339.871 62.8271 338.271 63.1271 336.331 63.1271ZM353.073 53.0471C352.273 52.6071 351.603 52.0171 351.063 51.2771C350.523 50.5371 350.253 49.5271 350.253 48.2471C350.253 46.5871 350.623 45.2571 351.363 44.2571C352.103 43.2571 353.083 42.5371 354.303 42.0971C355.543 41.6371 356.883 41.4071 358.323 41.4071H364.053L359.553 62.8271H356.853L358.743 53.9471H355.503L348.783 62.8271H345.543L353.073 53.0471ZM357.093 51.6671H359.223L360.933 43.7171H358.323C357.323 43.7171 356.423 43.8571 355.623 44.1371C354.823 44.3971 354.183 44.8471 353.703 45.4871C353.243 46.1071 353.013 46.9571 353.013 48.0371C353.013 49.1171 353.343 49.9971 354.003 50.6771C354.663 51.3371 355.693 51.6671 357.093 51.6671ZM377.739 39.3071C376.039 39.3071 374.819 38.9771 374.079 38.3171C373.359 37.6371 372.999 36.7571 372.999 35.6771C372.999 35.2971 373.039 34.9671 373.119 34.6871H375.429C375.369 35.0071 375.339 35.2871 375.339 35.5271C375.339 36.0871 375.529 36.5471 375.909 36.9071C376.309 37.2471 376.969 37.4171 377.889 37.4171C378.829 37.4171 379.599 37.2371 380.199 36.8771C380.819 36.4971 381.229 35.7671 381.429 34.6871H383.949C383.689 36.0871 383.069 37.2071 382.089 38.0471C381.129 38.8871 379.679 39.3071 377.739 39.3071ZM365.199 62.8271L369.729 41.4071H372.279L369.759 53.1971C369.639 53.7971 369.489 54.4771 369.309 55.2371C369.129 55.9971 368.959 56.7171 368.799 57.3971C368.659 58.0771 368.539 58.5971 368.439 58.9571H368.499L382.059 41.4071H385.179L380.649 62.8271H378.129L380.649 50.9171C380.809 50.2371 380.969 49.5271 381.129 48.7871C381.289 48.0271 381.439 47.3171 381.579 46.6571C381.739 45.9771 381.879 45.4171 381.999 44.9771H381.939L368.319 62.8271H365.199ZM394.814 63.1271C392.434 63.1271 390.564 62.3971 389.204 60.9371C387.864 59.4771 387.194 57.4771 387.194 54.9371C387.194 53.6571 387.344 52.3571 387.644 51.0371C387.944 49.7171 388.394 48.4671 388.994 47.2871C389.614 46.1071 390.384 45.0571 391.304 44.1371C392.244 43.1971 393.334 42.4571 394.574 41.9171C395.814 41.3771 397.214 41.1071 398.774 41.1071C400.774 41.1071 402.514 41.5071 403.994 42.3071L402.914 44.5271C402.374 44.2471 401.764 44.0071 401.084 43.8071C400.424 43.5871 399.654 43.4771 398.774 43.4771C397.274 43.4771 395.974 43.8171 394.874 44.4971C393.794 45.1571 392.894 46.0471 392.174 47.1671C391.454 48.2671 390.914 49.4871 390.554 50.8271C390.214 52.1671 390.044 53.5171 390.044 54.8771C390.044 56.6971 390.504 58.1371 391.424 59.1971C392.364 60.2371 393.654 60.7571 395.294 60.7571C396.114 60.7571 396.914 60.6771 397.694 60.5171C398.494 60.3571 399.274 60.1471 400.034 59.8871V62.2271C399.254 62.5071 398.464 62.7271 397.664 62.8871C396.884 63.0471 395.934 63.1271 394.814 63.1271ZM407.201 62.8271L411.221 43.7771H405.341L405.851 41.4071H420.311L419.831 43.7771H413.951L409.901 62.8271H407.201ZM418.9 62.8271L423.43 41.4071H428.98C430.96 41.4071 432.51 41.7971 433.63 42.5771C434.77 43.3571 435.34 44.6071 435.34 46.3271C435.34 47.7871 434.9 48.9771 434.02 49.8971C433.14 50.7971 431.97 51.3871 430.51 51.6671V51.8171C431.49 52.0771 432.31 52.5671 432.97 53.2871C433.63 54.0071 433.96 54.9671 433.96 56.1671C433.96 57.6271 433.6 58.8571 432.88 59.8571C432.18 60.8371 431.21 61.5771 429.97 62.0771C428.75 62.5771 427.34 62.8271 425.74 62.8271H418.9ZM427.69 50.5271C428.59 50.5271 429.4 50.3871 430.12 50.1071C430.86 49.8271 431.45 49.4071 431.89 48.8471C432.33 48.2671 432.55 47.5371 432.55 46.6571C432.55 45.7171 432.25 44.9971 431.65 44.4971C431.05 43.9771 430.05 43.7171 428.65 43.7171H425.62L424.18 50.5271H427.69ZM425.83 60.5471C427.53 60.5471 428.84 60.1671 429.76 59.4071C430.68 58.6471 431.14 57.5671 431.14 56.1671C431.14 55.2071 430.83 54.3971 430.21 53.7371C429.59 53.0771 428.54 52.7471 427.06 52.7471H423.7L422.05 60.5471H425.83ZM445.769 63.1271C443.209 63.1271 441.239 62.3871 439.859 60.9071C438.499 59.4071 437.819 57.3771 437.819 54.8171C437.819 52.9771 438.059 51.2271 438.539 49.5671C439.039 47.9071 439.759 46.4471 440.699 45.1871C441.639 43.9071 442.779 42.9071 444.119 42.1871C445.459 41.4471 446.969 41.0771 448.649 41.0771C451.089 41.0771 452.979 41.8271 454.319 43.3271C455.679 44.8271 456.359 46.8871 456.359 49.5071C456.359 51.3671 456.129 53.1171 455.669 54.7571C455.229 56.3971 454.559 57.8471 453.659 59.1071C452.779 60.3471 451.679 61.3271 450.359 62.0471C449.039 62.7671 447.509 63.1271 445.769 63.1271ZM445.859 60.7571C447.059 60.7571 448.129 60.4571 449.069 59.8571C450.009 59.2571 450.809 58.4371 451.469 57.3971C452.129 56.3371 452.629 55.1271 452.969 53.7671C453.329 52.4071 453.509 50.9671 453.509 49.4471C453.509 47.5471 453.059 46.0771 452.159 45.0371C451.259 43.9771 450.029 43.4471 448.469 43.4471C447.269 43.4471 446.189 43.7471 445.229 44.3471C444.269 44.9271 443.449 45.7371 442.769 46.7771C442.089 47.7971 441.569 48.9971 441.209 50.3771C440.849 51.7371 440.669 53.1971 440.669 54.7571C440.669 56.6371 441.129 58.1071 442.049 59.1671C442.969 60.2271 444.239 60.7571 445.859 60.7571Z" fill="#05668D"/>
<path d="M252.119 74.1491H24.9971C24.9971 74.1491 66.2333 70.3479 138.558 70.3479C210.883 70.3479 252.119 74.1491 252.119 74.1491Z" fill="#679436"/>
<path d="M231.213 73.1988L458.335 73.1988C458.335 73.1988 417.098 77 344.774 77C272.449 77 231.213 73.1988 231.213 73.1988Z" fill="#679436"/>
</svg>
